PathFileType	4	(X/Y/Z)	C:/Users/beibeiliu/ov580/test_trc/User2\sequence.16_training_dense_right.trc
DataRate	CameraRate	NumFrames	NumMarkers	Units	OrigDataRate	OrigDataStartFrame	OrigNumFrames
120	120	12	19	mm	120	309	411
Frame#	Time	ThumbCMC			ThumbMCP			ThumbIP			ThumbTip			IndexMCP			IndexPIP			IndexTip			MiddleMCP			MiddlePIP			MiddleTip			RingMCP			RingPIP			RingTip			PinkyMCP			PinkyPIP			PinkyTip			BackHand1			BackHand2			BackHand3	
		X0	Y0	Z0	X1	Y1	Z1	X2	Y2	Z2	X3	Y3	Z3	X4	Y4	Z4	X5	Y5	Z5	X6	Y6	Z6	X7	Y7	Z7	X8	Y8	Z8	X9	Y9	Z9	X10	Y10	Z10	X11	Y11	Z11	X12	Y12	Z12	X13	Y13	Z13	X14	Y14	Z14	X15	Y15	Z15	X16	Y16	Z16	X17	Y17	Z17	X18	Y18	Z18	
308	2.56667	32.9618	16.3009	90.9108	6.64802	19.3023	80.0295	-21.8362	23.5391	60.0714	-43.0792	24.2902	43.6012	22.885	25.108	5.56273	14.3701	22.6991	-23.5003	8.44939	20.7724	-45.0799	34.6958	-8.24785	-4.76013	24.9123	-39.0507	2.95013	31.336	-35.3546	43.6335	52.1775	-28.2644	2.25612	44.1271	-49.1798	21.7807	46.7535	-28.2551	50.8878	69.9585	-30.1315	12.3052	57.5758	-49.3306	37.4033	64.8255	-20.9872	58.4559	82.4012	17.1555	39.6138	95.0383	22.457	70.5617	56.0651	31.3336	67.2253	
309	2.575	34.4803	20.8469	85.8186	5.1924	26.5366	69.1394	-23.2745	30.1849	49.2624	-40.1325	27.3783	36.2493	20.6436	32.9868	-0.836848	16.2252	30.8959	-25.5997	9.51516	27.7898	-53.1008	39.8727	1.84173	-9.10533	29.0431	-35.2004	-0.853522	36.0443	-29.9809	36.6487	53.803	-21.5115	-3.33227	47.4524	-43.6997	15.5854	53.755	-21.3979	46.6002	74.401	-27.6921	6.39064	60.9525	-43.8517	29.759	66.6313	-18.8908	52.9219	84.855	25.5225	38.2127	99.7747	27.9042	68.0726	59.8589	38.1287	60.1473	
310	2.58333	34.2226	25.8285	77.242	11.2577	27.2898	61.2269	-19.1705	32.455	44.3268	-36.7962	31.0341	27.0325	26.2171	37.2222	-9.39618	20.6057	35.9111	-32.3829	15.9833	32.1378	-59.5915	43.8522	5.00276	-16.5083	35.4439	-29.4797	-11.7214	37.249	-26.6621	29.4236	64.0588	-14.3883	-10.4706	49.4388	-37.102	9.85189	55.1427	-15.8395	38.3124	79.6167	-24.4287	-1.65084	63.559	-36.3115	25.3083	72.4925	-12.0978	45.9687	87.7168	30.7842	28.9745	100.04	32.0088	62.6035	61.7962	40.9776	53.5838	
311	2.59167	40.3668	28.4184	68.164	14.3228	30.4569	56.0409	-10.8294	32.9959	34.584	-33.0611	32.2651	19.4907	34.8428	39.1587	-17.4144	26.9815	37.5112	-41.3763	19.4034	35.208	-73.435	47.6881	6.30059	-25.6568	40.7765	-28.1219	-19.5297	44.2329	-26.0693	20.1488	66.7045	-11.9328	-16.6726	56.9258	-36.5417	3.80716	61.9432	-12.9508	31.9504	88.1822	-20.1297	-7.179	73.423	-38.4398	18.55	75.8546	-10.5347	38.0031	93.99	30.7671	22.4686	105.985	35.0041	53.9899	67.9857	43.3048	46.8652	
312	2.6	43.7634	29.0815	61.2956	18.5969	31.1953	45.4846	-10.2886	34.1665	23.9073	-27.9706	30.8684	6.60018	38.4541	38.2319	-27.3025	34.4797	35.6357	-53.8846	29.9591	32.2485	-78.2295	55.4048	5.63991	-33.3602	45.6749	-29.5456	-26.047	50.1738	-25.7932	12.8534	74.0602	-17.5676	-24.6591	63.9149	-36.7683	-4.15937	67.8784	-12.6054	25.6591	89.9974	-22.5056	-14.1586	76.902	-36.0036	12.1138	86.629	-10.9754	34.2827	104.079	31.6177	14.3221	107.176	36.8116	46.1619	70.2974	46.7799	37.267	
313	2.60833	48.9653	27.5735	49.4669	21.1574	29.2094	37.4383	-5.23216	30.9792	15.7701	-25.5616	28.4823	0.90396	49.2508	32.4688	-34.1862	38.4271	30.8445	-62.0659	36.3683	26.3641	-87.7966	66.8952	-1.00256	-41.8053	55.9298	-34.0457	-32.1445	56.6946	-28.8534	7.42266	85.3072	-18.8651	-30.0734	72.5839	-42.0234	-9.87541	74.8517	-18.8823	19.4495	98.4321	-26.9315	-19.0898	82.3933	-39.1402	7.77334	91.2655	-17.2462	29.58	105.626	27.9369	5.43781	117.989	34.625	42.8038	78.4322	42.8182	29.7913	
314	2.61667	50.2811	25.1671	47.6538	28.1779	22.53	30.8789	1.41226	23.6809	3.99927	-19.2966	21.6081	-8.04226	52.4001	26.0615	-43.2211	45.6001	22.8956	-66.5034	44.0113	15.3492	-94.5115	71.4106	-7.45937	-45.6869	60.8182	-42.2512	-33.3324	66.8457	-35.3453	3.0542	89.8578	-26.7619	-33.1122	77.1609	-46.4215	-13.4781	78.4504	-21.3194	15.9392	104.585	-28.3402	-21.8662	89.673	-44.8303	3.2835	91.6852	-19.6196	24.0674	113.636	22.2452	0.128308	116.108	31.5772	35.4607	79.8791	38.6927	24.1992	
315	2.625	56.4147	16.7547	44.5889	31.469	13.7715	27.627	6.02565	12.19	3.41111	-17.0966	10.1551	-8.23362	57.989	14.8519	-44.3406	54.1078	10.2711	-68.5541	47.5702	3.86793	-100.582	76.4207	-15.3845	-45.93	71.1147	-52.253	-34.7478	68.9981	-43.2053	1.94559	96.4022	-37.4124	-33.9744	85.8377	-55.1781	-13.6157	83.692	-28.4198	15.6343	111.074	-40.0499	-22.6389	96.6274	-50.9154	3.94957	101.569	-23.5192	25.1055	115.38	17.8383	-2.40724	121.232	26.98	34.0828	83.7921	33.3823	18.8097	
316	2.63333	56.8869	8.89174	45.5034	34.655	2.69622	25.1507	7.37776	0.251222	7.28374	-14.3138	-4.56271	-8.21075	54.8889	3.0815	-45.2009	49.9548	-2.91519	-70.7709	50.3936	-9.9218	-97.274	76.9116	-27.3347	-44.3398	75.1913	-60.6772	-34.9435	77.4663	-51.7351	6.3992	98.2285	-43.8092	-30.6886	92.2969	-64.5416	-8.12604	92.2843	-36.8813	20.2319	115.036	-46.7095	-20.037	103.67	-60.5088	4.35812	104.813	-32.1336	27.8098	116.971	12.6673	2.12272	122.962	25.2437	35.5966	81.1736	25.4502	19.4916	
317	2.64167	56.7011	-0.265538	46.8475	30.4923	-4.29088	29.75	3.69387	-10.0538	8.05272	-10.0431	-18.072	-5.08312	54.3194	-6.7033	-39.7809	50.1565	-13.4467	-62.1496	46.5542	-21.5173	-87.9039	78.979	-38.5101	-41.6401	79.7047	-70.4212	-26.7659	79.8197	-57.7905	11.8702	97.7007	-46.8564	-26.6224	94.7756	-71.5122	-1.32012	91.5839	-43.4761	23.4912	118.649	-51.1846	-17.0903	106.021	-66.7266	9.6594	102.787	-39.4282	27.9712	116.303	6.31378	-0.0756856	122.482	20.2358	34.3125	81.041	16.4463	22.4226	
318	2.65	55.0595	-5.03537	52.4748	31.4206	-11.8471	41.0636	4.05092	-19.2961	17.0598	-13.2468	-27.6621	6.16533	51.9108	-14.4653	-31.819	47.0804	-23.051	-57.6121	42.8831	-31.2832	-84.1725	76.657	-44.0074	-34.1488	74.4539	-75.5443	-21.3634	77.8368	-63.181	19.7175	98.0425	-53.3017	-20.355	91.2432	-76.2392	4.25362	88.3412	-48.6955	29.595	117.067	-55.8277	-11.6113	109.2	-72.4311	16.7097	102.616	-44.1278	34.5001	108.266	2.05705	7.54899	117.001	14.5534	38.3314	80.608	10.9445	27.7945	
319	2.65833	52.9843	-6.97723	65.4686	28.2466	-14.7632	48.1387	-0.292184	-21.8523	29.253	-19.9711	-30.8064	20.4891	47.2213	-17.8284	-21.2986	39.9521	-26.49	-45.6359	30.632	-35.77	-74.9033	67.6633	-44.0754	-24.922	69.5222	-79.3925	-10.7995	72.9965	-68.5221	24.582	89.1337	-59.3272	-14.3665	91.5363	-78.9917	9.66764	89.1433	-49.972	35.7668	112.499	-55.0137	-5.38226	104.833	-72.9899	21.3458	100.002	-48.0974	41.1087	103.929	-0.126565	11.6529	116.528	14.9015	44.2557	76.2474	9.5716	36.1168	
